<?xml version="1.0" encoding="utf-8" standalone="no"?>
<!DOCTYPE svg PUBLIC "-//W3C//DTD SVG 1.1//EN"
  "http://www.w3.org/Graphics/SVG/1.1/DTD/svg11.dtd">
<svg xmlns:xlink="http://www.w3.org/1999/xlink" width="498.19207pt" height="202.244966pt" viewBox="0 0 498.19207 202.244966" xmlns="http://www.w3.org/2000/svg" version="1.1">
 <metadata>
  <rdf:RDF xmlns:dc="http://purl.org/dc/elements/1.1/" xmlns:cc="http://creativecommons.org/ns#" xmlns:rdf="http://www.w3.org/1999/02/22-rdf-syntax-ns#">
   <cc:Work>
    <dc:type rdf:resource="http://purl.org/dc/dcmitype/StillImage"/>
    <dc:date>2026-04-27T00:47:41.598419</dc:date>
    <dc:format>image/svg+xml</dc:format>
    <dc:creator>
     <cc:Agent>
      <dc:title>publication-plotting</dc:title>
     </cc:Agent>
    </dc:creator>
   </cc:Work>
  </rdf:RDF>
 </metadata>
 <defs>
  <style type="text/css">*{stroke-linejoin: round; stroke-linecap: butt}</style>
 </defs>
 <g id="figure_1">
  <g id="patch_1">
   <path d="M 0 202.244966 
L 498.19207 202.244966 
L 498.19207 0 
L 0 0 
z
" style="fill: #ffffff"/>
  </g>
  <g id="axes_1">
   <g id="patch_2">
    <path d="M 25.529063 181.248716 
L 491.74207 181.248716 
L 491.74207 17.992316 
L 25.529063 17.992316 
z
" style="fill: #ffffff"/>
   </g>
   <g id="FillBetweenPolyCollection_1">
    <path d="M 178.107865 17.992316 
L 178.107865 181.248716 
L 182.346165 181.248716 
L 186.584465 181.248716 
L 190.822765 181.248716 
L 195.061065 181.248716 
L 199.299365 181.248716 
L 203.537665 181.248716 
L 207.775966 181.248716 
L 212.014266 181.248716 
L 216.252566 181.248716 
L 220.490866 181.248716 
L 224.729166 181.248716 
L 228.967466 181.248716 
L 233.205766 181.248716 
L 237.444066 181.248716 
L 241.682366 181.248716 
L 245.920666 181.248716 
L 250.158966 181.248716 
L 254.397266 181.248716 
L 258.635566 181.248716 
L 262.873866 181.248716 
L 267.112167 181.248716 
L 271.350467 181.248716 
L 275.588767 181.248716 
L 279.827067 181.248716 
L 284.065367 181.248716 
L 288.303667 181.248716 
L 292.541967 181.248716 
L 296.780267 181.248716 
L 301.018567 181.248716 
L 305.256867 181.248716 
L 309.495167 181.248716 
L 313.733467 181.248716 
L 317.971767 181.248716 
L 322.210067 181.248716 
L 326.448368 181.248716 
L 330.686668 181.248716 
L 334.924968 181.248716 
L 339.163268 181.248716 
L 343.401568 181.248716 
L 347.639868 181.248716 
L 351.878168 181.248716 
L 356.116468 181.248716 
L 360.354768 181.248716 
L 364.593068 181.248716 
L 368.831368 181.248716 
L 373.069668 181.248716 
L 377.307968 181.248716 
L 381.546268 181.248716 
L 385.784569 181.248716 
L 390.022869 181.248716 
L 394.261169 181.248716 
L 398.499469 181.248716 
L 402.737769 181.248716 
L 406.976069 181.248716 
L 411.214369 181.248716 
L 415.452669 181.248716 
L 419.690969 181.248716 
L 423.929269 181.248716 
L 428.167569 181.248716 
L 432.405869 181.248716 
L 436.644169 181.248716 
L 440.882469 181.248716 
L 445.12077 181.248716 
L 449.35907 181.248716 
L 453.59737 181.248716 
L 457.83567 181.248716 
L 462.07397 181.248716 
L 466.31227 181.248716 
L 470.55057 181.248716 
L 470.55057 17.992316 
L 470.55057 17.992316 
L 466.31227 17.992316 
L 462.07397 17.992316 
L 457.83567 17.992316 
L 453.59737 17.992316 
L 449.35907 17.992316 
L 445.12077 17.992316 
L 440.882469 17.992316 
L 436.644169 17.992316 
L 432.405869 17.992316 
L 428.167569 17.992316 
L 423.929269 17.992316 
L 419.690969 17.992316 
L 415.452669 17.992316 
L 411.214369 17.992316 
L 406.976069 17.992316 
L 402.737769 17.992316 
L 398.499469 17.992316 
L 394.261169 17.992316 
L 390.022869 17.992316 
L 385.784569 17.992316 
L 381.546268 17.992316 
L 377.307968 17.992316 
L 373.069668 17.992316 
L 368.831368 17.992316 
L 364.593068 17.992316 
L 360.354768 17.992316 
L 356.116468 17.992316 
L 351.878168 17.992316 
L 347.639868 17.992316 
L 343.401568 17.992316 
L 339.163268 17.992316 
L 334.924968 17.992316 
L 330.686668 17.992316 
L 326.448368 17.992316 
L 322.210067 17.992316 
L 317.971767 17.992316 
L 313.733467 17.992316 
L 309.495167 17.992316 
L 305.256867 17.992316 
L 301.018567 17.992316 
L 296.780267 17.992316 
L 292.541967 17.992316 
L 288.303667 17.992316 
L 284.065367 17.992316 
L 279.827067 17.992316 
L 275.588767 17.992316 
L 271.350467 17.992316 
L 267.112167 17.992316 
L 262.873866 17.992316 
L 258.635566 17.992316 
L 254.397266 17.992316 
L 250.158966 17.992316 
L 245.920666 17.992316 
L 241.682366 17.992316 
L 237.444066 17.992316 
L 233.205766 17.992316 
L 228.967466 17.992316 
L 224.729166 17.992316 
L 220.490866 17.992316 
L 216.252566 17.992316 
L 212.014266 17.992316 
L 207.775966 17.992316 
L 203.537665 17.992316 
L 199.299365 17.992316 
L 195.061065 17.992316 
L 190.822765 17.992316 
L 186.584465 17.992316 
L 182.346165 17.992316 
L 178.107865 17.992316 
z
" clip-path="url(#p1bfa97313a)" style="fill: #d9dde3; fill-opacity: 0.16"/>
   </g>
   <g id="matplotlib.axis_1">
    <g id="xtick_1">
     <g id="line2d_1">
      <defs>
       <path id="me916f2d398" d="M 0 0 
L 0 -3 
" style="stroke: #000000; stroke-width: 0.75"/>
      </defs>
      <g>
       <use xlink:href="#me916f2d398" x="67.912063" y="181.248716" style="stroke: #000000; stroke-width: 0.75"/>
      </g>
     </g>
     <g id="line2d_2">
      <defs>
       <path id="m164fbe8b54" d="M 0 0 
L 0 3 
" style="stroke: #000000; stroke-width: 0.75"/>
      </defs>
      <g>
       <use xlink:href="#m164fbe8b54" x="67.912063" y="17.992316" style="stroke: #000000; stroke-width: 0.75"/>
      </g>
     </g>
     <g id="text_1">
      <!-- $\mathdefault{60}$ -->
      <g transform="translate(64.552063 189.043403)">
       <text>
        <tspan x="0" y="-0.6875" style="font-size: 6px; font-family: 'Arial'">6</tspan>
        <tspan x="3.336914" y="-0.6875" style="font-size: 6px; font-family: 'Arial'">0</tspan>
       </text>
      </g>
     </g>
    </g>
    <g id="xtick_2">
     <g id="line2d_3">
      <g>
       <use xlink:href="#me916f2d398" x="152.678065" y="181.248716" style="stroke: #000000; stroke-width: 0.75"/>
      </g>
     </g>
     <g id="line2d_4">
      <g>
       <use xlink:href="#m164fbe8b54" x="152.678065" y="17.992316" style="stroke: #000000; stroke-width: 0.75"/>
      </g>
     </g>
     <g id="text_2">
      <!-- $\mathdefault{80}$ -->
      <g transform="translate(149.318065 189.043403)">
       <text>
        <tspan x="0" y="-0.6875" style="font-size: 6px; font-family: 'Arial'">8</tspan>
        <tspan x="3.336914" y="-0.6875" style="font-size: 6px; font-family: 'Arial'">0</tspan>
       </text>
      </g>
     </g>
    </g>
    <g id="xtick_3">
     <g id="line2d_5">
      <g>
       <use xlink:href="#me916f2d398" x="237.444066" y="181.248716" style="stroke: #000000; stroke-width: 0.75"/>
      </g>
     </g>
     <g id="line2d_6">
      <g>
       <use xlink:href="#m164fbe8b54" x="237.444066" y="17.992316" style="stroke: #000000; stroke-width: 0.75"/>
      </g>
     </g>
     <g id="text_3">
      <!-- $\mathdefault{100}$ -->
      <g transform="translate(232.434066 189.043403)">
       <text>
        <tspan x="0" y="-0.6875" style="font-size: 6px; font-family: 'Arial'">1</tspan>
        <tspan x="3.336914" y="-0.6875" style="font-size: 6px; font-family: 'Arial'">0</tspan>
        <tspan x="6.673828" y="-0.6875" style="font-size: 6px; font-family: 'Arial'">0</tspan>
       </text>
      </g>
     </g>
    </g>
    <g id="xtick_4">
     <g id="line2d_7">
      <g>
       <use xlink:href="#me916f2d398" x="322.210067" y="181.248716" style="stroke: #000000; stroke-width: 0.75"/>
      </g>
     </g>
     <g id="line2d_8">
      <g>
       <use xlink:href="#m164fbe8b54" x="322.210067" y="17.992316" style="stroke: #000000; stroke-width: 0.75"/>
      </g>
     </g>
     <g id="text_4">
      <!-- $\mathdefault{120}$ -->
      <g transform="translate(317.200067 189.043403)">
       <text>
        <tspan x="0" y="-0.6875" style="font-size: 6px; font-family: 'Arial'">1</tspan>
        <tspan x="3.336914" y="-0.6875" style="font-size: 6px; font-family: 'Arial'">2</tspan>
        <tspan x="6.673828" y="-0.6875" style="font-size: 6px; font-family: 'Arial'">0</tspan>
       </text>
      </g>
     </g>
    </g>
    <g id="xtick_5">
     <g id="line2d_9">
      <g>
       <use xlink:href="#me916f2d398" x="406.976069" y="181.248716" style="stroke: #000000; stroke-width: 0.75"/>
      </g>
     </g>
     <g id="line2d_10">
      <g>
       <use xlink:href="#m164fbe8b54" x="406.976069" y="17.992316" style="stroke: #000000; stroke-width: 0.75"/>
      </g>
     </g>
     <g id="text_5">
      <!-- $\mathdefault{140}$ -->
      <g transform="translate(401.966069 189.043403)">
       <text>
        <tspan x="0" y="-0.6875" style="font-size: 6px; font-family: 'Arial'">1</tspan>
        <tspan x="3.336914" y="-0.6875" style="font-size: 6px; font-family: 'Arial'">4</tspan>
        <tspan x="6.673828" y="-0.6875" style="font-size: 6px; font-family: 'Arial'">0</tspan>
       </text>
      </g>
     </g>
    </g>
    <g id="xtick_6">
     <g id="line2d_11">
      <g>
       <use xlink:href="#me916f2d398" x="491.74207" y="181.248716" style="stroke: #000000; stroke-width: 0.75"/>
      </g>
     </g>
     <g id="line2d_12">
      <g>
       <use xlink:href="#m164fbe8b54" x="491.74207" y="17.992316" style="stroke: #000000; stroke-width: 0.75"/>
      </g>
     </g>
     <g id="text_6">
      <!-- $\mathdefault{160}$ -->
      <g transform="translate(486.73207 189.043403)">
       <text>
        <tspan x="0" y="-0.6875" style="font-size: 6px; font-family: 'Arial'">1</tspan>
        <tspan x="3.336914" y="-0.6875" style="font-size: 6px; font-family: 'Arial'">6</tspan>
        <tspan x="6.673828" y="-0.6875" style="font-size: 6px; font-family: 'Arial'">0</tspan>
       </text>
      </g>
     </g>
    </g>
    <g id="xtick_7">
     <g id="line2d_13">
      <defs>
       <path id="mf5cb785303" d="M 0 0 
L 0 -1.5 
" style="stroke: #000000; stroke-width: 0.5"/>
      </defs>
      <g>
       <use xlink:href="#mf5cb785303" x="25.529063" y="181.248716" style="stroke: #000000; stroke-width: 0.5"/>
      </g>
     </g>
     <g id="line2d_14">
      <defs>
       <path id="m0c6b69bfa2" d="M 0 0 
L 0 1.5 
" style="stroke: #000000; stroke-width: 0.5"/>
      </defs>
      <g>
       <use xlink:href="#m0c6b69bfa2" x="25.529063" y="17.992316" style="stroke: #000000; stroke-width: 0.5"/>
      </g>
     </g>
    </g>
    <g id="xtick_8">
     <g id="line2d_15">
      <g>
       <use xlink:href="#mf5cb785303" x="46.720563" y="181.248716" style="stroke: #000000; stroke-width: 0.5"/>
      </g>
     </g>
     <g id="line2d_16">
      <g>
       <use xlink:href="#m0c6b69bfa2" x="46.720563" y="17.992316" style="stroke: #000000; stroke-width: 0.5"/>
      </g>
     </g>
    </g>
    <g id="xtick_9">
     <g id="line2d_17">
      <g>
       <use xlink:href="#mf5cb785303" x="89.103564" y="181.248716" style="stroke: #000000; stroke-width: 0.5"/>
      </g>
     </g>
     <g id="line2d_18">
      <g>
       <use xlink:href="#m0c6b69bfa2" x="89.103564" y="17.992316" style="stroke: #000000; stroke-width: 0.5"/>
      </g>
     </g>
    </g>
    <g id="xtick_10">
     <g id="line2d_19">
      <g>
       <use xlink:href="#mf5cb785303" x="110.295064" y="181.248716" style="stroke: #000000; stroke-width: 0.5"/>
      </g>
     </g>
     <g id="line2d_20">
      <g>
       <use xlink:href="#m0c6b69bfa2" x="110.295064" y="17.992316" style="stroke: #000000; stroke-width: 0.5"/>
      </g>
     </g>
    </g>
    <g id="xtick_11">
     <g id="line2d_21">
      <g>
       <use xlink:href="#mf5cb785303" x="131.486564" y="181.248716" style="stroke: #000000; stroke-width: 0.5"/>
      </g>
     </g>
     <g id="line2d_22">
      <g>
       <use xlink:href="#m0c6b69bfa2" x="131.486564" y="17.992316" style="stroke: #000000; stroke-width: 0.5"/>
      </g>
     </g>
    </g>
    <g id="xtick_12">
     <g id="line2d_23">
      <g>
       <use xlink:href="#mf5cb785303" x="173.869565" y="181.248716" style="stroke: #000000; stroke-width: 0.5"/>
      </g>
     </g>
     <g id="line2d_24">
      <g>
       <use xlink:href="#m0c6b69bfa2" x="173.869565" y="17.992316" style="stroke: #000000; stroke-width: 0.5"/>
      </g>
     </g>
    </g>
    <g id="xtick_13">
     <g id="line2d_25">
      <g>
       <use xlink:href="#mf5cb785303" x="195.061065" y="181.248716" style="stroke: #000000; stroke-width: 0.5"/>
      </g>
     </g>
     <g id="line2d_26">
      <g>
       <use xlink:href="#m0c6b69bfa2" x="195.061065" y="17.992316" style="stroke: #000000; stroke-width: 0.5"/>
      </g>
     </g>
    </g>
    <g id="xtick_14">
     <g id="line2d_27">
      <g>
       <use xlink:href="#mf5cb785303" x="216.252566" y="181.248716" style="stroke: #000000; stroke-width: 0.5"/>
      </g>
     </g>
     <g id="line2d_28">
      <g>
       <use xlink:href="#m0c6b69bfa2" x="216.252566" y="17.992316" style="stroke: #000000; stroke-width: 0.5"/>
      </g>
     </g>
    </g>
    <g id="xtick_15">
     <g id="line2d_29">
      <g>
       <use xlink:href="#mf5cb785303" x="258.635566" y="181.248716" style="stroke: #000000; stroke-width: 0.5"/>
      </g>
     </g>
     <g id="line2d_30">
      <g>
       <use xlink:href="#m0c6b69bfa2" x="258.635566" y="17.992316" style="stroke: #000000; stroke-width: 0.5"/>
      </g>
     </g>
    </g>
    <g id="xtick_16">
     <g id="line2d_31">
      <g>
       <use xlink:href="#mf5cb785303" x="279.827067" y="181.248716" style="stroke: #000000; stroke-width: 0.5"/>
      </g>
     </g>
     <g id="line2d_32">
      <g>
       <use xlink:href="#m0c6b69bfa2" x="279.827067" y="17.992316" style="stroke: #000000; stroke-width: 0.5"/>
      </g>
     </g>
    </g>
    <g id="xtick_17">
     <g id="line2d_33">
      <g>
       <use xlink:href="#mf5cb785303" x="301.018567" y="181.248716" style="stroke: #000000; stroke-width: 0.5"/>
      </g>
     </g>
     <g id="line2d_34">
      <g>
       <use xlink:href="#m0c6b69bfa2" x="301.018567" y="17.992316" style="stroke: #000000; stroke-width: 0.5"/>
      </g>
     </g>
    </g>
    <g id="xtick_18">
     <g id="line2d_35">
      <g>
       <use xlink:href="#mf5cb785303" x="343.401568" y="181.248716" style="stroke: #000000; stroke-width: 0.5"/>
      </g>
     </g>
     <g id="line2d_36">
      <g>
       <use xlink:href="#m0c6b69bfa2" x="343.401568" y="17.992316" style="stroke: #000000; stroke-width: 0.5"/>
      </g>
     </g>
    </g>
    <g id="xtick_19">
     <g id="line2d_37">
      <g>
       <use xlink:href="#mf5cb785303" x="364.593068" y="181.248716" style="stroke: #000000; stroke-width: 0.5"/>
      </g>
     </g>
     <g id="line2d_38">
      <g>
       <use xlink:href="#m0c6b69bfa2" x="364.593068" y="17.992316" style="stroke: #000000; stroke-width: 0.5"/>
      </g>
     </g>
    </g>
    <g id="xtick_20">
     <g id="line2d_39">
      <g>
       <use xlink:href="#mf5cb785303" x="385.784569" y="181.248716" style="stroke: #000000; stroke-width: 0.5"/>
      </g>
     </g>
     <g id="line2d_40">
      <g>
       <use xlink:href="#m0c6b69bfa2" x="385.784569" y="17.992316" style="stroke: #000000; stroke-width: 0.5"/>
      </g>
     </g>
    </g>
    <g id="xtick_21">
     <g id="line2d_41">
      <g>
       <use xlink:href="#mf5cb785303" x="428.167569" y="181.248716" style="stroke: #000000; stroke-width: 0.5"/>
      </g>
     </g>
     <g id="line2d_42">
      <g>
       <use xlink:href="#m0c6b69bfa2" x="428.167569" y="17.992316" style="stroke: #000000; stroke-width: 0.5"/>
      </g>
     </g>
    </g>
    <g id="xtick_22">
     <g id="line2d_43">
      <g>
       <use xlink:href="#mf5cb785303" x="449.35907" y="181.248716" style="stroke: #000000; stroke-width: 0.5"/>
      </g>
     </g>
     <g id="line2d_44">
      <g>
       <use xlink:href="#m0c6b69bfa2" x="449.35907" y="17.992316" style="stroke: #000000; stroke-width: 0.5"/>
      </g>
     </g>
    </g>
    <g id="xtick_23">
     <g id="line2d_45">
      <g>
       <use xlink:href="#mf5cb785303" x="470.55057" y="181.248716" style="stroke: #000000; stroke-width: 0.5"/>
      </g>
     </g>
     <g id="line2d_46">
      <g>
       <use xlink:href="#m0c6b69bfa2" x="470.55057" y="17.992316" style="stroke: #000000; stroke-width: 0.5"/>
      </g>
     </g>
    </g>
    <g id="text_7">
     <text style="font-size: 7px; font-family: 'Arial', 'Helvetica', 'DejaVu Sans', sans-serif; text-anchor: middle" x="258.635566" y="199.331684" transform="rotate(-0 258.635566 199.331684)">Time (s)</text>
    </g>
   </g>
   <g id="matplotlib.axis_2">
    <g id="ytick_1">
     <g id="line2d_47">
      <path d="M 25.529063 172.656273 
L 491.74207 172.656273 
" clip-path="url(#p1bfa97313a)" style="fill: none; stroke: #b0b0b0; stroke-opacity: 0.16; stroke-width: 0.45; stroke-linecap: square"/>
     </g>
     <g id="line2d_48">
      <defs>
       <path id="mb8d7c86dc5" d="M 0 0 
L 3 0 
" style="stroke: #000000; stroke-width: 0.75"/>
      </defs>
      <g>
       <use xlink:href="#mb8d7c86dc5" x="25.529063" y="172.656273" style="stroke: #000000; stroke-width: 0.75"/>
      </g>
     </g>
     <g id="line2d_49">
      <defs>
       <path id="m26e13d2088" d="M 0 0 
L -3 0 
" style="stroke: #000000; stroke-width: 0.75"/>
      </defs>
      <g>
       <use xlink:href="#m26e13d2088" x="491.74207" y="172.656273" style="stroke: #000000; stroke-width: 0.75"/>
      </g>
     </g>
     <g id="text_8">
      <!-- $\mathdefault{60}$ -->
      <g transform="translate(15.309063 174.803617)">
       <text>
        <tspan x="0" y="-0.6875" style="font-size: 6px; font-family: 'Arial'">6</tspan>
        <tspan x="3.336914" y="-0.6875" style="font-size: 6px; font-family: 'Arial'">0</tspan>
       </text>
      </g>
     </g>
    </g>
    <g id="ytick_2">
     <g id="line2d_50">
      <path d="M 25.529063 138.286505 
L 491.74207 138.286505 
" clip-path="url(#p1bfa97313a)" style="fill: none; stroke: #b0b0b0; stroke-opacity: 0.16; stroke-width: 0.45; stroke-linecap: square"/>
     </g>
     <g id="line2d_51">
      <g>
       <use xlink:href="#mb8d7c86dc5" x="25.529063" y="138.286505" style="stroke: #000000; stroke-width: 0.75"/>
      </g>
     </g>
     <g id="line2d_52">
      <g>
       <use xlink:href="#m26e13d2088" x="491.74207" y="138.286505" style="stroke: #000000; stroke-width: 0.75"/>
      </g>
     </g>
     <g id="text_9">
      <!-- $\mathdefault{80}$ -->
      <g transform="translate(15.309063 140.433849)">
       <text>
        <tspan x="0" y="-0.6875" style="font-size: 6px; font-family: 'Arial'">8</tspan>
        <tspan x="3.336914" y="-0.6875" style="font-size: 6px; font-family: 'Arial'">0</tspan>
       </text>
      </g>
     </g>
    </g>
    <g id="ytick_3">
     <g id="line2d_53">
      <path d="M 25.529063 103.916737 
L 491.74207 103.916737 
" clip-path="url(#p1bfa97313a)" style="fill: none; stroke: #b0b0b0; stroke-opacity: 0.16; stroke-width: 0.45; stroke-linecap: square"/>
     </g>
     <g id="line2d_54">
      <g>
       <use xlink:href="#mb8d7c86dc5" x="25.529063" y="103.916737" style="stroke: #000000; stroke-width: 0.75"/>
      </g>
     </g>
     <g id="line2d_55">
      <g>
       <use xlink:href="#m26e13d2088" x="491.74207" y="103.916737" style="stroke: #000000; stroke-width: 0.75"/>
      </g>
     </g>
     <g id="text_10">
      <!-- $\mathdefault{100}$ -->
      <g transform="translate(12.009063 106.06408)">
       <text>
        <tspan x="0" y="-0.6875" style="font-size: 6px; font-family: 'Arial'">1</tspan>
        <tspan x="3.336914" y="-0.6875" style="font-size: 6px; font-family: 'Arial'">0</tspan>
        <tspan x="6.673828" y="-0.6875" style="font-size: 6px; font-family: 'Arial'">0</tspan>
       </text>
      </g>
     </g>
    </g>
    <g id="ytick_4">
     <g id="line2d_56">
      <path d="M 25.529063 69.546968 
L 491.74207 69.546968 
" clip-path="url(#p1bfa97313a)" style="fill: none; stroke: #b0b0b0; stroke-opacity: 0.16; stroke-width: 0.45; stroke-linecap: square"/>
     </g>
     <g id="line2d_57">
      <g>
       <use xlink:href="#mb8d7c86dc5" x="25.529063" y="69.546968" style="stroke: #000000; stroke-width: 0.75"/>
      </g>
     </g>
     <g id="line2d_58">
      <g>
       <use xlink:href="#m26e13d2088" x="491.74207" y="69.546968" style="stroke: #000000; stroke-width: 0.75"/>
      </g>
     </g>
     <g id="text_11">
      <!-- $\mathdefault{120}$ -->
      <g transform="translate(12.009063 71.694312)">
       <text>
        <tspan x="0" y="-0.6875" style="font-size: 6px; font-family: 'Arial'">1</tspan>
        <tspan x="3.336914" y="-0.6875" style="font-size: 6px; font-family: 'Arial'">2</tspan>
        <tspan x="6.673828" y="-0.6875" style="font-size: 6px; font-family: 'Arial'">0</tspan>
       </text>
      </g>
     </g>
    </g>
    <g id="ytick_5">
     <g id="line2d_59">
      <path d="M 25.529063 35.1772 
L 491.74207 35.1772 
" clip-path="url(#p1bfa97313a)" style="fill: none; stroke: #b0b0b0; stroke-opacity: 0.16; stroke-width: 0.45; stroke-linecap: square"/>
     </g>
     <g id="line2d_60">
      <g>
       <use xlink:href="#mb8d7c86dc5" x="25.529063" y="35.1772" style="stroke: #000000; stroke-width: 0.75"/>
      </g>
     </g>
     <g id="line2d_61">
      <g>
       <use xlink:href="#m26e13d2088" x="491.74207" y="35.1772" style="stroke: #000000; stroke-width: 0.75"/>
      </g>
     </g>
     <g id="text_12">
      <!-- $\mathdefault{140}$ -->
      <g transform="translate(12.009063 37.324543)">
       <text>
        <tspan x="0" y="-0.6875" style="font-size: 6px; font-family: 'Arial'">1</tspan>
        <tspan x="3.336914" y="-0.6875" style="font-size: 6px; font-family: 'Arial'">4</tspan>
        <tspan x="6.673828" y="-0.6875" style="font-size: 6px; font-family: 'Arial'">0</tspan>
       </text>
      </g>
     </g>
    </g>
    <g id="ytick_6">
     <g id="line2d_62">
      <defs>
       <path id="mbd89fada13" d="M 0 0 
L 1.5 0 
" style="stroke: #000000; stroke-width: 0.5"/>
      </defs>
      <g>
       <use xlink:href="#mbd89fada13" x="25.529063" y="181.248716" style="stroke: #000000; stroke-width: 0.5"/>
      </g>
     </g>
     <g id="line2d_63">
      <defs>
       <path id="m67af350f85" d="M 0 0 
L -1.5 0 
" style="stroke: #000000; stroke-width: 0.5"/>
      </defs>
      <g>
       <use xlink:href="#m67af350f85" x="491.74207" y="181.248716" style="stroke: #000000; stroke-width: 0.5"/>
      </g>
     </g>
    </g>
    <g id="ytick_7">
     <g id="line2d_64">
      <g>
       <use xlink:href="#mbd89fada13" x="25.529063" y="164.063831" style="stroke: #000000; stroke-width: 0.5"/>
      </g>
     </g>
     <g id="line2d_65">
      <g>
       <use xlink:href="#m67af350f85" x="491.74207" y="164.063831" style="stroke: #000000; stroke-width: 0.5"/>
      </g>
     </g>
    </g>
    <g id="ytick_8">
     <g id="line2d_66">
      <g>
       <use xlink:href="#mbd89fada13" x="25.529063" y="155.471389" style="stroke: #000000; stroke-width: 0.5"/>
      </g>
     </g>
     <g id="line2d_67">
      <g>
       <use xlink:href="#m67af350f85" x="491.74207" y="155.471389" style="stroke: #000000; stroke-width: 0.5"/>
      </g>
     </g>
    </g>
    <g id="ytick_9">
     <g id="line2d_68">
      <g>
       <use xlink:href="#mbd89fada13" x="25.529063" y="146.878947" style="stroke: #000000; stroke-width: 0.5"/>
      </g>
     </g>
     <g id="line2d_69">
      <g>
       <use xlink:href="#m67af350f85" x="491.74207" y="146.878947" style="stroke: #000000; stroke-width: 0.5"/>
      </g>
     </g>
    </g>
    <g id="ytick_10">
     <g id="line2d_70">
      <g>
       <use xlink:href="#mbd89fada13" x="25.529063" y="129.694063" style="stroke: #000000; stroke-width: 0.5"/>
      </g>
     </g>
     <g id="line2d_71">
      <g>
       <use xlink:href="#m67af350f85" x="491.74207" y="129.694063" style="stroke: #000000; stroke-width: 0.5"/>
      </g>
     </g>
    </g>
    <g id="ytick_11">
     <g id="line2d_72">
      <g>
       <use xlink:href="#mbd89fada13" x="25.529063" y="121.101621" style="stroke: #000000; stroke-width: 0.5"/>
      </g>
     </g>
     <g id="line2d_73">
      <g>
       <use xlink:href="#m67af350f85" x="491.74207" y="121.101621" style="stroke: #000000; stroke-width: 0.5"/>
      </g>
     </g>
    </g>
    <g id="ytick_12">
     <g id="line2d_74">
      <g>
       <use xlink:href="#mbd89fada13" x="25.529063" y="112.509179" style="stroke: #000000; stroke-width: 0.5"/>
      </g>
     </g>
     <g id="line2d_75">
      <g>
       <use xlink:href="#m67af350f85" x="491.74207" y="112.509179" style="stroke: #000000; stroke-width: 0.5"/>
      </g>
     </g>
    </g>
    <g id="ytick_13">
     <g id="line2d_76">
      <g>
       <use xlink:href="#mbd89fada13" x="25.529063" y="95.324294" style="stroke: #000000; stroke-width: 0.5"/>
      </g>
     </g>
     <g id="line2d_77">
      <g>
       <use xlink:href="#m67af350f85" x="491.74207" y="95.324294" style="stroke: #000000; stroke-width: 0.5"/>
      </g>
     </g>
    </g>
    <g id="ytick_14">
     <g id="line2d_78">
      <g>
       <use xlink:href="#mbd89fada13" x="25.529063" y="86.731852" style="stroke: #000000; stroke-width: 0.5"/>
      </g>
     </g>
     <g id="line2d_79">
      <g>
       <use xlink:href="#m67af350f85" x="491.74207" y="86.731852" style="stroke: #000000; stroke-width: 0.5"/>
      </g>
     </g>
    </g>
    <g id="ytick_15">
     <g id="line2d_80">
      <g>
       <use xlink:href="#mbd89fada13" x="25.529063" y="78.13941" style="stroke: #000000; stroke-width: 0.5"/>
      </g>
     </g>
     <g id="line2d_81">
      <g>
       <use xlink:href="#m67af350f85" x="491.74207" y="78.13941" style="stroke: #000000; stroke-width: 0.5"/>
      </g>
     </g>
    </g>
    <g id="ytick_16">
     <g id="line2d_82">
      <g>
       <use xlink:href="#mbd89fada13" x="25.529063" y="60.954526" style="stroke: #000000; stroke-width: 0.5"/>
      </g>
     </g>
     <g id="line2d_83">
      <g>
       <use xlink:href="#m67af350f85" x="491.74207" y="60.954526" style="stroke: #000000; stroke-width: 0.5"/>
      </g>
     </g>
    </g>
    <g id="ytick_17">
     <g id="line2d_84">
      <g>
       <use xlink:href="#mbd89fada13" x="25.529063" y="52.362084" style="stroke: #000000; stroke-width: 0.5"/>
      </g>
     </g>
     <g id="line2d_85">
      <g>
       <use xlink:href="#m67af350f85" x="491.74207" y="52.362084" style="stroke: #000000; stroke-width: 0.5"/>
      </g>
     </g>
    </g>
    <g id="ytick_18">
     <g id="line2d_86">
      <g>
       <use xlink:href="#mbd89fada13" x="25.529063" y="43.769642" style="stroke: #000000; stroke-width: 0.5"/>
      </g>
     </g>
     <g id="line2d_87">
      <g>
       <use xlink:href="#m67af350f85" x="491.74207" y="43.769642" style="stroke: #000000; stroke-width: 0.5"/>
      </g>
     </g>
    </g>
    <g id="ytick_19">
     <g id="line2d_88">
      <g>
       <use xlink:href="#mbd89fada13" x="25.529063" y="26.584758" style="stroke: #000000; stroke-width: 0.5"/>
      </g>
     </g>
     <g id="line2d_89">
      <g>
       <use xlink:href="#m67af350f85" x="491.74207" y="26.584758" style="stroke: #000000; stroke-width: 0.5"/>
      </g>
     </g>
    </g>
    <g id="ytick_20">
     <g id="line2d_90">
      <g>
       <use xlink:href="#mbd89fada13" x="25.529063" y="17.992316" style="stroke: #000000; stroke-width: 0.5"/>
      </g>
     </g>
     <g id="line2d_91">
      <g>
       <use xlink:href="#m67af350f85" x="491.74207" y="17.992316" style="stroke: #000000; stroke-width: 0.5"/>
      </g>
     </g>
    </g>
    <g id="text_13">
     <text style="font-size: 7px; font-family: 'Arial', 'Helvetica', 'DejaVu Sans', sans-serif; text-anchor: middle" x="6.535781" y="99.620516" transform="rotate(-90 6.535781 99.620516)">Heart rate (BPM)</text>
    </g>
   </g>
   <g id="line2d_92">
    <path d="M -1 147.697075 
L 0.099262 147.697075 
L 4.337562 148.641069 
L 21.290762 148.641069 
L 25.529063 147.067746 
L 42.482263 147.067746 
L 46.720563 150.529057 
L 55.197163 150.529057 
L 63.673763 151.158386 
L 67.912063 151.158386 
L 76.388663 151.787715 
L 80.626963 153.046374 
L 97.580164 153.046374 
L 101.818464 149.270398 
L 118.771664 149.270398 
L 123.009964 150.214392 
L 127.248264 150.843721 
L 131.486564 150.843721 
L 135.724864 152.10238 
L 139.963164 152.731709 
L 144.201464 152.731709 
L 148.439765 153.675703 
L 152.678065 153.990368 
L 156.916365 157.137014 
L 161.154665 159.968996 
L 165.392965 161.542319 
L 182.346165 161.542319 
L 190.822765 164.059636 
L 195.061065 164.3743 
L 199.299365 164.3743 
L 203.537665 167.617444 
L 207.775966 174.128904 
L 212.014266 174.128904 
L 216.252566 176.209886 
L 220.490866 182.721346 
L 224.729166 186.400824 
L 254.397266 186.400824 
L 258.635566 186.08616 
L 271.350467 186.08616 
L 275.588767 192.379452 
L 279.827067 192.379452 
L 284.065367 190.806129 
L 288.303667 187.974147 
L 305.256867 187.974147 
L 309.495167 185.771495 
L 313.733467 185.771495 
L 317.971767 179.69637 
L 330.686668 179.69637 
L 334.924968 177.686712 
L 351.878168 177.686712 
L 356.116468 180.736861 
L 360.354768 181.051526 
L 364.593068 179.163538 
L 368.831368 175.072898 
L 373.069668 172.652078 
L 381.546268 172.652078 
L 385.784569 170.571096 
L 390.022869 165.414791 
L 406.976069 165.414791 
L 415.452669 182.599676 
L 419.690969 184.198172 
L 423.929269 184.198172 
L 428.167569 187.248321 
L 445.12077 187.248321 
L 449.35907 183.568843 
L 453.59737 178.655879 
L 457.83567 176.331556 
L 462.07397 167.739114 
L 499.19207 167.739114 
L 499.19207 167.739114 
" clip-path="url(#p1bfa97313a)" style="fill: none; stroke-dasharray: 2.4,1.68; stroke-dashoffset: 0; stroke: #7a7a7a; stroke-width: 1.2"/>
   </g>
   <g id="patch_3">
    <path d="M 25.529063 181.248716 
L 25.529063 17.992316 
" style="fill: none; stroke: #000000; stroke-width: 0.75; stroke-linejoin: miter; stroke-linecap: square"/>
   </g>
   <g id="patch_4">
    <path d="M 25.529063 181.248716 
L 491.74207 181.248716 
" style="fill: none; stroke: #000000; stroke-width: 0.75; stroke-linejoin: miter; stroke-linecap: square"/>
   </g>
   <g id="text_14">
    <text style="font-size: 6px; font-family: 'Arial', 'Helvetica', 'DejaVu Sans', sans-serif; text-anchor: start; fill: #666666" x="41.846518" y="33.714951" transform="rotate(-0 41.846518 33.714951)">Motion period</text>
   </g>
   <g id="line2d_93">
    <path d="M -1 147.697075 
L 0.099262 147.697075 
L 4.337562 148.641069 
L 21.290762 148.641069 
L 25.529063 147.067746 
L 42.482263 147.067746 
L 46.720563 150.529057 
L 55.197163 150.529057 
L 63.673763 151.158386 
L 67.912063 151.158386 
L 76.388663 151.787715 
L 80.626963 153.046374 
L 97.580164 153.046374 
L 101.818464 149.270398 
L 118.771664 149.270398 
L 123.009964 150.214392 
L 127.248264 150.843721 
L 131.486564 150.843721 
L 135.724864 152.10238 
L 139.963164 152.731709 
L 144.201464 152.731709 
L 148.439765 153.675703 
L 152.678065 153.990368 
L 156.916365 157.137014 
L 161.154665 159.968996 
L 165.392965 161.542319 
L 173.869565 161.542319 
L 178.107865 137.942472 
L 182.346165 136.126647 
L 186.584465 131.649179 
L 190.822765 125.985216 
L 195.061065 124.097228 
L 199.299365 120.635917 
L 203.537665 111.510643 
L 216.252566 75.422386 
L 220.490866 75.396374 
L 224.729166 63.366955 
L 228.967466 58.646985 
L 245.920666 58.646985 
L 250.158966 68.159087 
L 254.397266 87.596131 
L 258.635566 87.596131 
L 262.873866 92.001436 
L 267.112167 92.001436 
L 271.350467 92.316101 
L 275.588767 96.406741 
L 305.256867 96.406741 
L 309.495167 84.377322 
L 317.971767 84.377322 
L 322.210067 72.347903 
L 326.448368 59.276315 
L 330.686668 57.388327 
L 334.924968 45.431071 
L 339.163268 44.801742 
L 360.354768 44.801742 
L 368.831368 44.172413 
L 373.069668 42.913754 
L 381.546268 42.913754 
L 385.784569 40.396437 
L 390.022869 35.047138 
L 398.499469 35.047138 
L 402.737769 32.529821 
L 406.976069 32.215157 
L 419.690969 32.215157 
L 423.929269 38.823114 
L 428.167569 38.823114 
L 432.405869 40.711102 
L 436.644169 44.172413 
L 440.882469 44.487077 
L 445.12077 49.836376 
L 449.35907 52.740521 
L 453.59737 52.983022 
L 457.83567 65.012441 
L 462.07397 69.660247 
L 466.31227 70.604241 
L 470.55057 73.436223 
L 474.78887 167.739114 
L 499.19207 167.739114 
L 499.19207 167.739114 
" clip-path="url(#p1bfa97313a)" style="fill: none; stroke: #0072b2; stroke-width: 1.4; stroke-linecap: square"/>
   </g>
   <g id="text_15">
    <g id="patch_5">
     <path d="M 438.734998 172.953332 
L 482.41781 172.953332 
Q 483.91781 172.953332 483.91781 171.453332 
L 483.91781 147.358222 
Q 483.91781 145.858222 482.41781 145.858222 
L 438.734998 145.858222 
Q 437.234998 145.858222 437.234998 147.358222 
L 437.234998 171.453332 
Q 437.234998 172.953332 438.734998 172.953332 
z
" style="fill: #ffffff; opacity: 0.86; stroke: #c8c8c8; stroke-width: 0.4; stroke-linejoin: miter"/>
    </g>
    <text style="font-size: 6px; font-family: 'Arial', 'Helvetica', 'DejaVu Sans', sans-serif" transform="translate(451.74656 151.796347)">AAE (BPM)</text>
    <text style="font-size: 6px; font-family: 'Arial', 'Helvetica', 'DejaVu Sans', sans-serif" transform="translate(454.848748 157.99805)">FFT 30.92</text>
    <text style="font-size: 6px; font-family: 'Arial', 'Helvetica', 'DejaVu Sans', sans-serif" transform="translate(443.405623 164.129441)">HF-LMS 16.30</text>
    <text style="font-size: 6px; font-family: 'Arial', 'Helvetica', 'DejaVu Sans', sans-serif" transform="translate(438.734998 170.260832)">ACC-LMS 14.36</text>
   </g>
   <g id="line2d_94">
    <path d="M -1 147.697075 
L 0.099262 147.697075 
L 4.337562 148.641069 
L 21.290762 148.641069 
L 25.529063 147.067746 
L 42.482263 147.067746 
L 46.720563 150.529057 
L 55.197163 150.529057 
L 63.673763 151.158386 
L 67.912063 151.158386 
L 76.388663 151.787715 
L 80.626963 153.046374 
L 97.580164 153.046374 
L 101.818464 149.270398 
L 118.771664 149.270398 
L 123.009964 150.214392 
L 127.248264 150.843721 
L 131.486564 150.843721 
L 135.724864 152.10238 
L 139.963164 152.731709 
L 144.201464 152.731709 
L 148.439765 153.675703 
L 152.678065 153.990368 
L 156.916365 157.137014 
L 161.154665 159.968996 
L 165.392965 161.542319 
L 203.537665 161.614482 
L 207.775966 166.576953 
L 212.014266 173.643901 
L 228.967466 173.643901 
L 233.205766 166.576953 
L 237.444066 153.990368 
L 241.682366 153.675703 
L 250.158966 129.616865 
L 254.397266 119.691923 
L 271.350467 119.691923 
L 275.588767 121.894576 
L 279.827067 129.761191 
L 284.065367 131.334514 
L 301.018567 131.334514 
L 305.256867 125.985216 
L 309.495167 124.411893 
L 313.733467 118.747929 
L 322.210067 94.689091 
L 326.448368 94.689091 
L 330.686668 82.659673 
L 334.924968 82.659673 
L 339.163268 73.750888 
L 343.401568 71.548235 
L 347.639868 70.604241 
L 351.878168 66.513601 
L 360.354768 66.513601 
L 368.831368 42.454763 
L 373.069668 35.047138 
L 377.307968 34.732474 
L 390.022869 34.732474 
L 394.261169 35.047138 
L 398.499469 37.249791 
L 402.737769 37.249791 
L 406.976069 40.711102 
L 411.214369 40.711102 
L 415.452669 41.655096 
L 428.167569 41.655096 
L 432.405869 42.913754 
L 436.644169 42.913754 
L 440.882469 43.543083 
L 445.12077 43.543083 
L 449.35907 46.0604 
L 453.59737 47.633723 
L 457.83567 49.521711 
L 466.31227 49.521711 
L 470.55057 52.353693 
L 474.78887 167.739114 
L 499.19207 167.739114 
L 499.19207 167.739114 
" clip-path="url(#p1bfa97313a)" style="fill: none; stroke: #d55e00; stroke-width: 1.5; stroke-linecap: square"/>
   </g>
   <g id="line2d_95">
    <path d="M -1 146.878947 
L 4.337562 146.878947 
L 8.575862 148.597436 
L 21.290762 148.597436 
L 25.529063 146.878947 
L 46.720563 146.878947 
L 50.958863 148.597436 
L 72.150363 148.597436 
L 76.388663 150.315924 
L 156.916365 150.315924 
L 161.154665 148.597436 
L 169.631265 148.597436 
L 173.869565 152.034412 
L 178.107865 153.752901 
L 182.346165 153.752901 
L 186.584465 155.471389 
L 190.822765 155.471389 
L 195.061065 152.034412 
L 199.299365 145.160459 
L 203.537665 129.694063 
L 207.775966 121.101621 
L 212.014266 119.383132 
L 216.252566 112.509179 
L 220.490866 110.79069 
L 228.967466 110.79069 
L 237.444066 103.916737 
L 241.682366 102.198248 
L 245.920666 97.042783 
L 250.158966 95.324294 
L 254.397266 90.168829 
L 258.635566 88.450341 
L 267.112167 81.576387 
L 271.350467 81.576387 
L 275.588767 78.13941 
L 292.541967 71.265457 
L 305.256867 71.265457 
L 309.495167 67.82848 
L 317.971767 64.391503 
L 322.210067 64.391503 
L 326.448368 62.673014 
L 330.686668 59.236038 
L 334.924968 57.517549 
L 339.163268 54.080572 
L 343.401568 52.362084 
L 347.639868 52.362084 
L 351.878168 48.925107 
L 356.116468 47.206619 
L 360.354768 47.206619 
L 364.593068 45.48813 
L 368.831368 45.48813 
L 377.307968 42.051153 
L 381.546268 38.614177 
L 390.022869 35.1772 
L 394.261169 35.1772 
L 398.499469 33.458711 
L 402.737769 33.458711 
L 406.976069 31.740223 
L 415.452669 31.740223 
L 419.690969 33.458711 
L 423.929269 33.458711 
L 445.12077 42.051153 
L 449.35907 45.48813 
L 457.83567 48.925107 
L 466.31227 55.799061 
L 470.55057 57.517549 
L 474.78887 60.954526 
L 479.02717 60.954526 
L 483.26547 62.673014 
L 499.19207 62.673014 
L 499.19207 62.673014 
" clip-path="url(#p1bfa97313a)" style="fill: none; stroke: #222222; stroke-width: 1.6; stroke-linecap: square"/>
   </g>
   <g id="legend_1">
    <g id="line2d_96">
     <path d="M 167.830723 6.034688 
L 174.430723 6.034688 
L 181.030723 6.034688 
" style="fill: none; stroke: #222222; stroke-width: 1.6; stroke-linecap: square"/>
    </g>
    <g id="text_16">
     <text style="font-size: 6px; font-family: 'Arial', 'Helvetica', 'DejaVu Sans', sans-serif; text-anchor: start" x="185.830723" y="8.134688" transform="rotate(-0 185.830723 8.134688)">Reference</text>
    </g>
    <g id="line2d_97">
     <path d="M 220.711348 6.034688 
L 227.311348 6.034688 
L 233.911348 6.034688 
" style="fill: none; stroke-dasharray: 2.4,1.68; stroke-dashoffset: 0; stroke: #7a7a7a; stroke-width: 1.2"/>
    </g>
    <g id="text_17">
     <text style="font-size: 6px; font-family: 'Arial', 'Helvetica', 'DejaVu Sans', sans-serif; text-anchor: start" x="238.711348" y="8.134688" transform="rotate(-0 238.711348 8.134688)">FFT</text>
    </g>
    <g id="line2d_98">
     <path d="M 256.90541 6.034688 
L 263.50541 6.034688 
L 270.10541 6.034688 
" style="fill: none; stroke: #d55e00; stroke-width: 1.5; stroke-linecap: square"/>
    </g>
    <g id="text_18">
     <text style="font-size: 6px; font-family: 'Arial', 'Helvetica', 'DejaVu Sans', sans-serif; text-anchor: start" x="274.90541" y="8.134688" transform="rotate(-0 274.90541 8.134688)">HF-LMS</text>
    </g>
    <g id="line2d_99">
     <path d="M 304.437598 6.034688 
L 311.037598 6.034688 
L 317.637598 6.034688 
" style="fill: none; stroke: #0072b2; stroke-width: 1.4; stroke-linecap: square"/>
    </g>
    <g id="text_19">
     <text style="font-size: 6px; font-family: 'Arial', 'Helvetica', 'DejaVu Sans', sans-serif; text-anchor: start" x="322.437598" y="8.134688" transform="rotate(-0 322.437598 8.134688)">ACC-LMS</text>
    </g>
   </g>
  </g>
 </g>
 <defs>
  <clipPath id="p1bfa97313a">
   <rect x="25.529063" y="17.992316" width="466.213008" height="163.2564"/>
  </clipPath>
 </defs>
</svg>
