<?xml version="1.0" encoding="utf-8" standalone="no"?>
<!DOCTYPE svg PUBLIC "-//W3C//DTD SVG 1.1//EN"
  "http://www.w3.org/Graphics/SVG/1.1/DTD/svg11.dtd">
<svg xmlns:xlink="http://www.w3.org/1999/xlink" width="498.19207pt" height="202.244966pt" viewBox="0 0 498.19207 202.244966" xmlns="http://www.w3.org/2000/svg" version="1.1">
 <metadata>
  <rdf:RDF xmlns:dc="http://purl.org/dc/elements/1.1/" xmlns:cc="http://creativecommons.org/ns#" xmlns:rdf="http://www.w3.org/1999/02/22-rdf-syntax-ns#">
   <cc:Work>
    <dc:type rdf:resource="http://purl.org/dc/dcmitype/StillImage"/>
    <dc:date>2026-04-27T00:47:30.577552</dc:date>
    <dc:format>image/svg+xml</dc:format>
    <dc:creator>
     <cc:Agent>
      <dc:title>publication-plotting</dc:title>
     </cc:Agent>
    </dc:creator>
   </cc:Work>
  </rdf:RDF>
 </metadata>
 <defs>
  <style type="text/css">*{stroke-linejoin: round; stroke-linecap: butt}</style>
 </defs>
 <g id="figure_1">
  <g id="patch_1">
   <path d="M 0 202.244966 
L 498.19207 202.244966 
L 498.19207 0 
L 0 0 
z
" style="fill: #ffffff"/>
  </g>
  <g id="axes_1">
   <g id="patch_2">
    <path d="M 25.529063 181.248716 
L 491.74207 181.248716 
L 491.74207 17.992316 
L 25.529063 17.992316 
z
" style="fill: #ffffff"/>
   </g>
   <g id="FillBetweenPolyCollection_1">
    <path d="M 186.584465 17.992316 
L 186.584465 181.248716 
L 190.822765 181.248716 
L 195.061065 181.248716 
L 199.299365 181.248716 
L 203.537665 181.248716 
L 207.775966 181.248716 
L 212.014266 181.248716 
L 216.252566 181.248716 
L 220.490866 181.248716 
L 224.729166 181.248716 
L 228.967466 181.248716 
L 233.205766 181.248716 
L 237.444066 181.248716 
L 241.682366 181.248716 
L 245.920666 181.248716 
L 250.158966 181.248716 
L 254.397266 181.248716 
L 258.635566 181.248716 
L 262.873866 181.248716 
L 267.112167 181.248716 
L 271.350467 181.248716 
L 275.588767 181.248716 
L 279.827067 181.248716 
L 284.065367 181.248716 
L 288.303667 181.248716 
L 292.541967 181.248716 
L 296.780267 181.248716 
L 301.018567 181.248716 
L 305.256867 181.248716 
L 309.495167 181.248716 
L 313.733467 181.248716 
L 317.971767 181.248716 
L 322.210067 181.248716 
L 326.448368 181.248716 
L 330.686668 181.248716 
L 334.924968 181.248716 
L 339.163268 181.248716 
L 343.401568 181.248716 
L 347.639868 181.248716 
L 351.878168 181.248716 
L 356.116468 181.248716 
L 360.354768 181.248716 
L 364.593068 181.248716 
L 368.831368 181.248716 
L 373.069668 181.248716 
L 377.307968 181.248716 
L 381.546268 181.248716 
L 385.784569 181.248716 
L 390.022869 181.248716 
L 394.261169 181.248716 
L 398.499469 181.248716 
L 402.737769 181.248716 
L 406.976069 181.248716 
L 411.214369 181.248716 
L 415.452669 181.248716 
L 419.690969 181.248716 
L 423.929269 181.248716 
L 428.167569 181.248716 
L 432.405869 181.248716 
L 436.644169 181.248716 
L 440.882469 181.248716 
L 445.12077 181.248716 
L 449.35907 181.248716 
L 453.59737 181.248716 
L 453.59737 17.992316 
L 453.59737 17.992316 
L 449.35907 17.992316 
L 445.12077 17.992316 
L 440.882469 17.992316 
L 436.644169 17.992316 
L 432.405869 17.992316 
L 428.167569 17.992316 
L 423.929269 17.992316 
L 419.690969 17.992316 
L 415.452669 17.992316 
L 411.214369 17.992316 
L 406.976069 17.992316 
L 402.737769 17.992316 
L 398.499469 17.992316 
L 394.261169 17.992316 
L 390.022869 17.992316 
L 385.784569 17.992316 
L 381.546268 17.992316 
L 377.307968 17.992316 
L 373.069668 17.992316 
L 368.831368 17.992316 
L 364.593068 17.992316 
L 360.354768 17.992316 
L 356.116468 17.992316 
L 351.878168 17.992316 
L 347.639868 17.992316 
L 343.401568 17.992316 
L 339.163268 17.992316 
L 334.924968 17.992316 
L 330.686668 17.992316 
L 326.448368 17.992316 
L 322.210067 17.992316 
L 317.971767 17.992316 
L 313.733467 17.992316 
L 309.495167 17.992316 
L 305.256867 17.992316 
L 301.018567 17.992316 
L 296.780267 17.992316 
L 292.541967 17.992316 
L 288.303667 17.992316 
L 284.065367 17.992316 
L 279.827067 17.992316 
L 275.588767 17.992316 
L 271.350467 17.992316 
L 267.112167 17.992316 
L 262.873866 17.992316 
L 258.635566 17.992316 
L 254.397266 17.992316 
L 250.158966 17.992316 
L 245.920666 17.992316 
L 241.682366 17.992316 
L 237.444066 17.992316 
L 233.205766 17.992316 
L 228.967466 17.992316 
L 224.729166 17.992316 
L 220.490866 17.992316 
L 216.252566 17.992316 
L 212.014266 17.992316 
L 207.775966 17.992316 
L 203.537665 17.992316 
L 199.299365 17.992316 
L 195.061065 17.992316 
L 190.822765 17.992316 
L 186.584465 17.992316 
z
" clip-path="url(#p53e3b8df87)" style="fill: #d9dde3; fill-opacity: 0.16"/>
   </g>
   <g id="matplotlib.axis_1">
    <g id="xtick_1">
     <g id="line2d_1">
      <defs>
       <path id="m3cb051e6c8" d="M 0 0 
L 0 -3 
" style="stroke: #000000; stroke-width: 0.75"/>
      </defs>
      <g>
       <use xlink:href="#m3cb051e6c8" x="67.912063" y="181.248716" style="stroke: #000000; stroke-width: 0.75"/>
      </g>
     </g>
     <g id="line2d_2">
      <defs>
       <path id="ma7e82dabd4" d="M 0 0 
L 0 3 
" style="stroke: #000000; stroke-width: 0.75"/>
      </defs>
      <g>
       <use xlink:href="#ma7e82dabd4" x="67.912063" y="17.992316" style="stroke: #000000; stroke-width: 0.75"/>
      </g>
     </g>
     <g id="text_1">
      <!-- $\mathdefault{60}$ -->
      <g transform="translate(64.552063 189.043403)">
       <text>
        <tspan x="0" y="-0.6875" style="font-size: 6px; font-family: 'Arial'">6</tspan>
        <tspan x="3.336914" y="-0.6875" style="font-size: 6px; font-family: 'Arial'">0</tspan>
       </text>
      </g>
     </g>
    </g>
    <g id="xtick_2">
     <g id="line2d_3">
      <g>
       <use xlink:href="#m3cb051e6c8" x="152.678065" y="181.248716" style="stroke: #000000; stroke-width: 0.75"/>
      </g>
     </g>
     <g id="line2d_4">
      <g>
       <use xlink:href="#ma7e82dabd4" x="152.678065" y="17.992316" style="stroke: #000000; stroke-width: 0.75"/>
      </g>
     </g>
     <g id="text_2">
      <!-- $\mathdefault{80}$ -->
      <g transform="translate(149.318065 189.043403)">
       <text>
        <tspan x="0" y="-0.6875" style="font-size: 6px; font-family: 'Arial'">8</tspan>
        <tspan x="3.336914" y="-0.6875" style="font-size: 6px; font-family: 'Arial'">0</tspan>
       </text>
      </g>
     </g>
    </g>
    <g id="xtick_3">
     <g id="line2d_5">
      <g>
       <use xlink:href="#m3cb051e6c8" x="237.444066" y="181.248716" style="stroke: #000000; stroke-width: 0.75"/>
      </g>
     </g>
     <g id="line2d_6">
      <g>
       <use xlink:href="#ma7e82dabd4" x="237.444066" y="17.992316" style="stroke: #000000; stroke-width: 0.75"/>
      </g>
     </g>
     <g id="text_3">
      <!-- $\mathdefault{100}$ -->
      <g transform="translate(232.434066 189.043403)">
       <text>
        <tspan x="0" y="-0.6875" style="font-size: 6px; font-family: 'Arial'">1</tspan>
        <tspan x="3.336914" y="-0.6875" style="font-size: 6px; font-family: 'Arial'">0</tspan>
        <tspan x="6.673828" y="-0.6875" style="font-size: 6px; font-family: 'Arial'">0</tspan>
       </text>
      </g>
     </g>
    </g>
    <g id="xtick_4">
     <g id="line2d_7">
      <g>
       <use xlink:href="#m3cb051e6c8" x="322.210067" y="181.248716" style="stroke: #000000; stroke-width: 0.75"/>
      </g>
     </g>
     <g id="line2d_8">
      <g>
       <use xlink:href="#ma7e82dabd4" x="322.210067" y="17.992316" style="stroke: #000000; stroke-width: 0.75"/>
      </g>
     </g>
     <g id="text_4">
      <!-- $\mathdefault{120}$ -->
      <g transform="translate(317.200067 189.043403)">
       <text>
        <tspan x="0" y="-0.6875" style="font-size: 6px; font-family: 'Arial'">1</tspan>
        <tspan x="3.336914" y="-0.6875" style="font-size: 6px; font-family: 'Arial'">2</tspan>
        <tspan x="6.673828" y="-0.6875" style="font-size: 6px; font-family: 'Arial'">0</tspan>
       </text>
      </g>
     </g>
    </g>
    <g id="xtick_5">
     <g id="line2d_9">
      <g>
       <use xlink:href="#m3cb051e6c8" x="406.976069" y="181.248716" style="stroke: #000000; stroke-width: 0.75"/>
      </g>
     </g>
     <g id="line2d_10">
      <g>
       <use xlink:href="#ma7e82dabd4" x="406.976069" y="17.992316" style="stroke: #000000; stroke-width: 0.75"/>
      </g>
     </g>
     <g id="text_5">
      <!-- $\mathdefault{140}$ -->
      <g transform="translate(401.966069 189.043403)">
       <text>
        <tspan x="0" y="-0.6875" style="font-size: 6px; font-family: 'Arial'">1</tspan>
        <tspan x="3.336914" y="-0.6875" style="font-size: 6px; font-family: 'Arial'">4</tspan>
        <tspan x="6.673828" y="-0.6875" style="font-size: 6px; font-family: 'Arial'">0</tspan>
       </text>
      </g>
     </g>
    </g>
    <g id="xtick_6">
     <g id="line2d_11">
      <g>
       <use xlink:href="#m3cb051e6c8" x="491.74207" y="181.248716" style="stroke: #000000; stroke-width: 0.75"/>
      </g>
     </g>
     <g id="line2d_12">
      <g>
       <use xlink:href="#ma7e82dabd4" x="491.74207" y="17.992316" style="stroke: #000000; stroke-width: 0.75"/>
      </g>
     </g>
     <g id="text_6">
      <!-- $\mathdefault{160}$ -->
      <g transform="translate(486.73207 189.043403)">
       <text>
        <tspan x="0" y="-0.6875" style="font-size: 6px; font-family: 'Arial'">1</tspan>
        <tspan x="3.336914" y="-0.6875" style="font-size: 6px; font-family: 'Arial'">6</tspan>
        <tspan x="6.673828" y="-0.6875" style="font-size: 6px; font-family: 'Arial'">0</tspan>
       </text>
      </g>
     </g>
    </g>
    <g id="xtick_7">
     <g id="line2d_13">
      <defs>
       <path id="m4b3716be40" d="M 0 0 
L 0 -1.5 
" style="stroke: #000000; stroke-width: 0.5"/>
      </defs>
      <g>
       <use xlink:href="#m4b3716be40" x="25.529063" y="181.248716" style="stroke: #000000; stroke-width: 0.5"/>
      </g>
     </g>
     <g id="line2d_14">
      <defs>
       <path id="m63232c43ee" d="M 0 0 
L 0 1.5 
" style="stroke: #000000; stroke-width: 0.5"/>
      </defs>
      <g>
       <use xlink:href="#m63232c43ee" x="25.529063" y="17.992316" style="stroke: #000000; stroke-width: 0.5"/>
      </g>
     </g>
    </g>
    <g id="xtick_8">
     <g id="line2d_15">
      <g>
       <use xlink:href="#m4b3716be40" x="46.720563" y="181.248716" style="stroke: #000000; stroke-width: 0.5"/>
      </g>
     </g>
     <g id="line2d_16">
      <g>
       <use xlink:href="#m63232c43ee" x="46.720563" y="17.992316" style="stroke: #000000; stroke-width: 0.5"/>
      </g>
     </g>
    </g>
    <g id="xtick_9">
     <g id="line2d_17">
      <g>
       <use xlink:href="#m4b3716be40" x="89.103564" y="181.248716" style="stroke: #000000; stroke-width: 0.5"/>
      </g>
     </g>
     <g id="line2d_18">
      <g>
       <use xlink:href="#m63232c43ee" x="89.103564" y="17.992316" style="stroke: #000000; stroke-width: 0.5"/>
      </g>
     </g>
    </g>
    <g id="xtick_10">
     <g id="line2d_19">
      <g>
       <use xlink:href="#m4b3716be40" x="110.295064" y="181.248716" style="stroke: #000000; stroke-width: 0.5"/>
      </g>
     </g>
     <g id="line2d_20">
      <g>
       <use xlink:href="#m63232c43ee" x="110.295064" y="17.992316" style="stroke: #000000; stroke-width: 0.5"/>
      </g>
     </g>
    </g>
    <g id="xtick_11">
     <g id="line2d_21">
      <g>
       <use xlink:href="#m4b3716be40" x="131.486564" y="181.248716" style="stroke: #000000; stroke-width: 0.5"/>
      </g>
     </g>
     <g id="line2d_22">
      <g>
       <use xlink:href="#m63232c43ee" x="131.486564" y="17.992316" style="stroke: #000000; stroke-width: 0.5"/>
      </g>
     </g>
    </g>
    <g id="xtick_12">
     <g id="line2d_23">
      <g>
       <use xlink:href="#m4b3716be40" x="173.869565" y="181.248716" style="stroke: #000000; stroke-width: 0.5"/>
      </g>
     </g>
     <g id="line2d_24">
      <g>
       <use xlink:href="#m63232c43ee" x="173.869565" y="17.992316" style="stroke: #000000; stroke-width: 0.5"/>
      </g>
     </g>
    </g>
    <g id="xtick_13">
     <g id="line2d_25">
      <g>
       <use xlink:href="#m4b3716be40" x="195.061065" y="181.248716" style="stroke: #000000; stroke-width: 0.5"/>
      </g>
     </g>
     <g id="line2d_26">
      <g>
       <use xlink:href="#m63232c43ee" x="195.061065" y="17.992316" style="stroke: #000000; stroke-width: 0.5"/>
      </g>
     </g>
    </g>
    <g id="xtick_14">
     <g id="line2d_27">
      <g>
       <use xlink:href="#m4b3716be40" x="216.252566" y="181.248716" style="stroke: #000000; stroke-width: 0.5"/>
      </g>
     </g>
     <g id="line2d_28">
      <g>
       <use xlink:href="#m63232c43ee" x="216.252566" y="17.992316" style="stroke: #000000; stroke-width: 0.5"/>
      </g>
     </g>
    </g>
    <g id="xtick_15">
     <g id="line2d_29">
      <g>
       <use xlink:href="#m4b3716be40" x="258.635566" y="181.248716" style="stroke: #000000; stroke-width: 0.5"/>
      </g>
     </g>
     <g id="line2d_30">
      <g>
       <use xlink:href="#m63232c43ee" x="258.635566" y="17.992316" style="stroke: #000000; stroke-width: 0.5"/>
      </g>
     </g>
    </g>
    <g id="xtick_16">
     <g id="line2d_31">
      <g>
       <use xlink:href="#m4b3716be40" x="279.827067" y="181.248716" style="stroke: #000000; stroke-width: 0.5"/>
      </g>
     </g>
     <g id="line2d_32">
      <g>
       <use xlink:href="#m63232c43ee" x="279.827067" y="17.992316" style="stroke: #000000; stroke-width: 0.5"/>
      </g>
     </g>
    </g>
    <g id="xtick_17">
     <g id="line2d_33">
      <g>
       <use xlink:href="#m4b3716be40" x="301.018567" y="181.248716" style="stroke: #000000; stroke-width: 0.5"/>
      </g>
     </g>
     <g id="line2d_34">
      <g>
       <use xlink:href="#m63232c43ee" x="301.018567" y="17.992316" style="stroke: #000000; stroke-width: 0.5"/>
      </g>
     </g>
    </g>
    <g id="xtick_18">
     <g id="line2d_35">
      <g>
       <use xlink:href="#m4b3716be40" x="343.401568" y="181.248716" style="stroke: #000000; stroke-width: 0.5"/>
      </g>
     </g>
     <g id="line2d_36">
      <g>
       <use xlink:href="#m63232c43ee" x="343.401568" y="17.992316" style="stroke: #000000; stroke-width: 0.5"/>
      </g>
     </g>
    </g>
    <g id="xtick_19">
     <g id="line2d_37">
      <g>
       <use xlink:href="#m4b3716be40" x="364.593068" y="181.248716" style="stroke: #000000; stroke-width: 0.5"/>
      </g>
     </g>
     <g id="line2d_38">
      <g>
       <use xlink:href="#m63232c43ee" x="364.593068" y="17.992316" style="stroke: #000000; stroke-width: 0.5"/>
      </g>
     </g>
    </g>
    <g id="xtick_20">
     <g id="line2d_39">
      <g>
       <use xlink:href="#m4b3716be40" x="385.784569" y="181.248716" style="stroke: #000000; stroke-width: 0.5"/>
      </g>
     </g>
     <g id="line2d_40">
      <g>
       <use xlink:href="#m63232c43ee" x="385.784569" y="17.992316" style="stroke: #000000; stroke-width: 0.5"/>
      </g>
     </g>
    </g>
    <g id="xtick_21">
     <g id="line2d_41">
      <g>
       <use xlink:href="#m4b3716be40" x="428.167569" y="181.248716" style="stroke: #000000; stroke-width: 0.5"/>
      </g>
     </g>
     <g id="line2d_42">
      <g>
       <use xlink:href="#m63232c43ee" x="428.167569" y="17.992316" style="stroke: #000000; stroke-width: 0.5"/>
      </g>
     </g>
    </g>
    <g id="xtick_22">
     <g id="line2d_43">
      <g>
       <use xlink:href="#m4b3716be40" x="449.35907" y="181.248716" style="stroke: #000000; stroke-width: 0.5"/>
      </g>
     </g>
     <g id="line2d_44">
      <g>
       <use xlink:href="#m63232c43ee" x="449.35907" y="17.992316" style="stroke: #000000; stroke-width: 0.5"/>
      </g>
     </g>
    </g>
    <g id="xtick_23">
     <g id="line2d_45">
      <g>
       <use xlink:href="#m4b3716be40" x="470.55057" y="181.248716" style="stroke: #000000; stroke-width: 0.5"/>
      </g>
     </g>
     <g id="line2d_46">
      <g>
       <use xlink:href="#m63232c43ee" x="470.55057" y="17.992316" style="stroke: #000000; stroke-width: 0.5"/>
      </g>
     </g>
    </g>
    <g id="text_7">
     <text style="font-size: 7px; font-family: 'Arial', 'Helvetica', 'DejaVu Sans', sans-serif; text-anchor: middle" x="258.635566" y="199.331684" transform="rotate(-0 258.635566 199.331684)">Time (s)</text>
    </g>
   </g>
   <g id="matplotlib.axis_2">
    <g id="ytick_1">
     <g id="line2d_47">
      <path d="M 25.529063 172.656273 
L 491.74207 172.656273 
" clip-path="url(#p53e3b8df87)" style="fill: none; stroke: #b0b0b0; stroke-opacity: 0.16; stroke-width: 0.45; stroke-linecap: square"/>
     </g>
     <g id="line2d_48">
      <defs>
       <path id="m177e2f9142" d="M 0 0 
L 3 0 
" style="stroke: #000000; stroke-width: 0.75"/>
      </defs>
      <g>
       <use xlink:href="#m177e2f9142" x="25.529063" y="172.656273" style="stroke: #000000; stroke-width: 0.75"/>
      </g>
     </g>
     <g id="line2d_49">
      <defs>
       <path id="md78923b970" d="M 0 0 
L -3 0 
" style="stroke: #000000; stroke-width: 0.75"/>
      </defs>
      <g>
       <use xlink:href="#md78923b970" x="491.74207" y="172.656273" style="stroke: #000000; stroke-width: 0.75"/>
      </g>
     </g>
     <g id="text_8">
      <!-- $\mathdefault{60}$ -->
      <g transform="translate(15.309063 174.803617)">
       <text>
        <tspan x="0" y="-0.6875" style="font-size: 6px; font-family: 'Arial'">6</tspan>
        <tspan x="3.336914" y="-0.6875" style="font-size: 6px; font-family: 'Arial'">0</tspan>
       </text>
      </g>
     </g>
    </g>
    <g id="ytick_2">
     <g id="line2d_50">
      <path d="M 25.529063 138.286505 
L 491.74207 138.286505 
" clip-path="url(#p53e3b8df87)" style="fill: none; stroke: #b0b0b0; stroke-opacity: 0.16; stroke-width: 0.45; stroke-linecap: square"/>
     </g>
     <g id="line2d_51">
      <g>
       <use xlink:href="#m177e2f9142" x="25.529063" y="138.286505" style="stroke: #000000; stroke-width: 0.75"/>
      </g>
     </g>
     <g id="line2d_52">
      <g>
       <use xlink:href="#md78923b970" x="491.74207" y="138.286505" style="stroke: #000000; stroke-width: 0.75"/>
      </g>
     </g>
     <g id="text_9">
      <!-- $\mathdefault{80}$ -->
      <g transform="translate(15.309063 140.433849)">
       <text>
        <tspan x="0" y="-0.6875" style="font-size: 6px; font-family: 'Arial'">8</tspan>
        <tspan x="3.336914" y="-0.6875" style="font-size: 6px; font-family: 'Arial'">0</tspan>
       </text>
      </g>
     </g>
    </g>
    <g id="ytick_3">
     <g id="line2d_53">
      <path d="M 25.529063 103.916737 
L 491.74207 103.916737 
" clip-path="url(#p53e3b8df87)" style="fill: none; stroke: #b0b0b0; stroke-opacity: 0.16; stroke-width: 0.45; stroke-linecap: square"/>
     </g>
     <g id="line2d_54">
      <g>
       <use xlink:href="#m177e2f9142" x="25.529063" y="103.916737" style="stroke: #000000; stroke-width: 0.75"/>
      </g>
     </g>
     <g id="line2d_55">
      <g>
       <use xlink:href="#md78923b970" x="491.74207" y="103.916737" style="stroke: #000000; stroke-width: 0.75"/>
      </g>
     </g>
     <g id="text_10">
      <!-- $\mathdefault{100}$ -->
      <g transform="translate(12.009063 106.06408)">
       <text>
        <tspan x="0" y="-0.6875" style="font-size: 6px; font-family: 'Arial'">1</tspan>
        <tspan x="3.336914" y="-0.6875" style="font-size: 6px; font-family: 'Arial'">0</tspan>
        <tspan x="6.673828" y="-0.6875" style="font-size: 6px; font-family: 'Arial'">0</tspan>
       </text>
      </g>
     </g>
    </g>
    <g id="ytick_4">
     <g id="line2d_56">
      <path d="M 25.529063 69.546968 
L 491.74207 69.546968 
" clip-path="url(#p53e3b8df87)" style="fill: none; stroke: #b0b0b0; stroke-opacity: 0.16; stroke-width: 0.45; stroke-linecap: square"/>
     </g>
     <g id="line2d_57">
      <g>
       <use xlink:href="#m177e2f9142" x="25.529063" y="69.546968" style="stroke: #000000; stroke-width: 0.75"/>
      </g>
     </g>
     <g id="line2d_58">
      <g>
       <use xlink:href="#md78923b970" x="491.74207" y="69.546968" style="stroke: #000000; stroke-width: 0.75"/>
      </g>
     </g>
     <g id="text_11">
      <!-- $\mathdefault{120}$ -->
      <g transform="translate(12.009063 71.694312)">
       <text>
        <tspan x="0" y="-0.6875" style="font-size: 6px; font-family: 'Arial'">1</tspan>
        <tspan x="3.336914" y="-0.6875" style="font-size: 6px; font-family: 'Arial'">2</tspan>
        <tspan x="6.673828" y="-0.6875" style="font-size: 6px; font-family: 'Arial'">0</tspan>
       </text>
      </g>
     </g>
    </g>
    <g id="ytick_5">
     <g id="line2d_59">
      <path d="M 25.529063 35.1772 
L 491.74207 35.1772 
" clip-path="url(#p53e3b8df87)" style="fill: none; stroke: #b0b0b0; stroke-opacity: 0.16; stroke-width: 0.45; stroke-linecap: square"/>
     </g>
     <g id="line2d_60">
      <g>
       <use xlink:href="#m177e2f9142" x="25.529063" y="35.1772" style="stroke: #000000; stroke-width: 0.75"/>
      </g>
     </g>
     <g id="line2d_61">
      <g>
       <use xlink:href="#md78923b970" x="491.74207" y="35.1772" style="stroke: #000000; stroke-width: 0.75"/>
      </g>
     </g>
     <g id="text_12">
      <!-- $\mathdefault{140}$ -->
      <g transform="translate(12.009063 37.324543)">
       <text>
        <tspan x="0" y="-0.6875" style="font-size: 6px; font-family: 'Arial'">1</tspan>
        <tspan x="3.336914" y="-0.6875" style="font-size: 6px; font-family: 'Arial'">4</tspan>
        <tspan x="6.673828" y="-0.6875" style="font-size: 6px; font-family: 'Arial'">0</tspan>
       </text>
      </g>
     </g>
    </g>
    <g id="ytick_6">
     <g id="line2d_62">
      <defs>
       <path id="me14032c861" d="M 0 0 
L 1.5 0 
" style="stroke: #000000; stroke-width: 0.5"/>
      </defs>
      <g>
       <use xlink:href="#me14032c861" x="25.529063" y="181.248716" style="stroke: #000000; stroke-width: 0.5"/>
      </g>
     </g>
     <g id="line2d_63">
      <defs>
       <path id="m22a5168e2d" d="M 0 0 
L -1.5 0 
" style="stroke: #000000; stroke-width: 0.5"/>
      </defs>
      <g>
       <use xlink:href="#m22a5168e2d" x="491.74207" y="181.248716" style="stroke: #000000; stroke-width: 0.5"/>
      </g>
     </g>
    </g>
    <g id="ytick_7">
     <g id="line2d_64">
      <g>
       <use xlink:href="#me14032c861" x="25.529063" y="164.063831" style="stroke: #000000; stroke-width: 0.5"/>
      </g>
     </g>
     <g id="line2d_65">
      <g>
       <use xlink:href="#m22a5168e2d" x="491.74207" y="164.063831" style="stroke: #000000; stroke-width: 0.5"/>
      </g>
     </g>
    </g>
    <g id="ytick_8">
     <g id="line2d_66">
      <g>
       <use xlink:href="#me14032c861" x="25.529063" y="155.471389" style="stroke: #000000; stroke-width: 0.5"/>
      </g>
     </g>
     <g id="line2d_67">
      <g>
       <use xlink:href="#m22a5168e2d" x="491.74207" y="155.471389" style="stroke: #000000; stroke-width: 0.5"/>
      </g>
     </g>
    </g>
    <g id="ytick_9">
     <g id="line2d_68">
      <g>
       <use xlink:href="#me14032c861" x="25.529063" y="146.878947" style="stroke: #000000; stroke-width: 0.5"/>
      </g>
     </g>
     <g id="line2d_69">
      <g>
       <use xlink:href="#m22a5168e2d" x="491.74207" y="146.878947" style="stroke: #000000; stroke-width: 0.5"/>
      </g>
     </g>
    </g>
    <g id="ytick_10">
     <g id="line2d_70">
      <g>
       <use xlink:href="#me14032c861" x="25.529063" y="129.694063" style="stroke: #000000; stroke-width: 0.5"/>
      </g>
     </g>
     <g id="line2d_71">
      <g>
       <use xlink:href="#m22a5168e2d" x="491.74207" y="129.694063" style="stroke: #000000; stroke-width: 0.5"/>
      </g>
     </g>
    </g>
    <g id="ytick_11">
     <g id="line2d_72">
      <g>
       <use xlink:href="#me14032c861" x="25.529063" y="121.101621" style="stroke: #000000; stroke-width: 0.5"/>
      </g>
     </g>
     <g id="line2d_73">
      <g>
       <use xlink:href="#m22a5168e2d" x="491.74207" y="121.101621" style="stroke: #000000; stroke-width: 0.5"/>
      </g>
     </g>
    </g>
    <g id="ytick_12">
     <g id="line2d_74">
      <g>
       <use xlink:href="#me14032c861" x="25.529063" y="112.509179" style="stroke: #000000; stroke-width: 0.5"/>
      </g>
     </g>
     <g id="line2d_75">
      <g>
       <use xlink:href="#m22a5168e2d" x="491.74207" y="112.509179" style="stroke: #000000; stroke-width: 0.5"/>
      </g>
     </g>
    </g>
    <g id="ytick_13">
     <g id="line2d_76">
      <g>
       <use xlink:href="#me14032c861" x="25.529063" y="95.324294" style="stroke: #000000; stroke-width: 0.5"/>
      </g>
     </g>
     <g id="line2d_77">
      <g>
       <use xlink:href="#m22a5168e2d" x="491.74207" y="95.324294" style="stroke: #000000; stroke-width: 0.5"/>
      </g>
     </g>
    </g>
    <g id="ytick_14">
     <g id="line2d_78">
      <g>
       <use xlink:href="#me14032c861" x="25.529063" y="86.731852" style="stroke: #000000; stroke-width: 0.5"/>
      </g>
     </g>
     <g id="line2d_79">
      <g>
       <use xlink:href="#m22a5168e2d" x="491.74207" y="86.731852" style="stroke: #000000; stroke-width: 0.5"/>
      </g>
     </g>
    </g>
    <g id="ytick_15">
     <g id="line2d_80">
      <g>
       <use xlink:href="#me14032c861" x="25.529063" y="78.13941" style="stroke: #000000; stroke-width: 0.5"/>
      </g>
     </g>
     <g id="line2d_81">
      <g>
       <use xlink:href="#m22a5168e2d" x="491.74207" y="78.13941" style="stroke: #000000; stroke-width: 0.5"/>
      </g>
     </g>
    </g>
    <g id="ytick_16">
     <g id="line2d_82">
      <g>
       <use xlink:href="#me14032c861" x="25.529063" y="60.954526" style="stroke: #000000; stroke-width: 0.5"/>
      </g>
     </g>
     <g id="line2d_83">
      <g>
       <use xlink:href="#m22a5168e2d" x="491.74207" y="60.954526" style="stroke: #000000; stroke-width: 0.5"/>
      </g>
     </g>
    </g>
    <g id="ytick_17">
     <g id="line2d_84">
      <g>
       <use xlink:href="#me14032c861" x="25.529063" y="52.362084" style="stroke: #000000; stroke-width: 0.5"/>
      </g>
     </g>
     <g id="line2d_85">
      <g>
       <use xlink:href="#m22a5168e2d" x="491.74207" y="52.362084" style="stroke: #000000; stroke-width: 0.5"/>
      </g>
     </g>
    </g>
    <g id="ytick_18">
     <g id="line2d_86">
      <g>
       <use xlink:href="#me14032c861" x="25.529063" y="43.769642" style="stroke: #000000; stroke-width: 0.5"/>
      </g>
     </g>
     <g id="line2d_87">
      <g>
       <use xlink:href="#m22a5168e2d" x="491.74207" y="43.769642" style="stroke: #000000; stroke-width: 0.5"/>
      </g>
     </g>
    </g>
    <g id="ytick_19">
     <g id="line2d_88">
      <g>
       <use xlink:href="#me14032c861" x="25.529063" y="26.584758" style="stroke: #000000; stroke-width: 0.5"/>
      </g>
     </g>
     <g id="line2d_89">
      <g>
       <use xlink:href="#m22a5168e2d" x="491.74207" y="26.584758" style="stroke: #000000; stroke-width: 0.5"/>
      </g>
     </g>
    </g>
    <g id="ytick_20">
     <g id="line2d_90">
      <g>
       <use xlink:href="#me14032c861" x="25.529063" y="17.992316" style="stroke: #000000; stroke-width: 0.5"/>
      </g>
     </g>
     <g id="line2d_91">
      <g>
       <use xlink:href="#m22a5168e2d" x="491.74207" y="17.992316" style="stroke: #000000; stroke-width: 0.5"/>
      </g>
     </g>
    </g>
    <g id="text_13">
     <text style="font-size: 7px; font-family: 'Arial', 'Helvetica', 'DejaVu Sans', sans-serif; text-anchor: middle" x="6.535781" y="99.620516" transform="rotate(-90 6.535781 99.620516)">Heart rate (BPM)</text>
    </g>
   </g>
   <g id="line2d_92">
    <path d="M -1 156.359157 
L 0.099262 157.451679 
L 17.052462 157.451679 
L 25.529063 154.934362 
L 29.767363 152.417045 
L 42.482263 148.641069 
L 59.435463 148.641069 
L 63.673763 152.417045 
L 67.912063 153.675703 
L 76.388663 153.675703 
L 89.103564 157.451679 
L 106.056764 157.451679 
L 110.295064 149.899728 
L 139.963164 149.899728 
L 144.201464 152.417045 
L 152.678065 152.417045 
L 156.916365 153.457536 
L 161.154665 153.675703 
L 165.392965 153.675703 
L 169.631265 153.457536 
L 178.107865 151.376553 
L 186.584465 151.376553 
L 190.822765 153.457536 
L 195.061065 155.756685 
L 199.299365 155.756685 
L 212.014266 181.534011 
L 216.252566 182.624849 
L 220.490866 185.142166 
L 241.682366 185.142166 
L 245.920666 182.624849 
L 250.158966 182.624849 
L 254.397266 177.590215 
L 292.541967 177.590215 
L 296.780267 168.997773 
L 313.733467 168.997773 
L 317.971767 173.596072 
L 322.210067 182.188514 
L 326.448368 182.624849 
L 356.116468 182.624849 
L 360.354768 183.883507 
L 364.593068 182.624849 
L 368.831368 182.624849 
L 373.069668 183.883507 
L 377.307968 186.400824 
L 390.022869 186.400824 
L 398.499469 183.883507 
L 402.737769 183.883507 
L 406.976069 176.549724 
L 411.214369 167.520947 
L 415.452669 165.00363 
L 419.690969 161.227654 
L 423.929269 158.710337 
L 428.167569 157.451679 
L 445.12077 157.451679 
L 449.35907 158.710337 
L 453.59737 160.791319 
L 466.31227 186.568645 
L 470.55057 191.435458 
L 474.78887 192.694117 
L 499.19207 192.694117 
L 499.19207 192.694117 
" clip-path="url(#p53e3b8df87)" style="fill: none; stroke-dasharray: 2.4,1.68; stroke-dashoffset: 0; stroke: #7a7a7a; stroke-width: 1.2"/>
   </g>
   <g id="patch_3">
    <path d="M 25.529063 181.248716 
L 25.529063 17.992316 
" style="fill: none; stroke: #000000; stroke-width: 0.75; stroke-linejoin: miter; stroke-linecap: square"/>
   </g>
   <g id="patch_4">
    <path d="M 25.529063 181.248716 
L 491.74207 181.248716 
" style="fill: none; stroke: #000000; stroke-width: 0.75; stroke-linejoin: miter; stroke-linecap: square"/>
   </g>
   <g id="text_14">
    <text style="font-size: 6px; font-family: 'Arial', 'Helvetica', 'DejaVu Sans', sans-serif; text-anchor: start; fill: #666666" x="41.846518" y="33.714951" transform="rotate(-0 41.846518 33.714951)">Motion period</text>
   </g>
   <g id="line2d_93">
    <path d="M -1 156.359157 
L 0.099262 157.451679 
L 17.052462 157.451679 
L 25.529063 154.934362 
L 29.767363 152.417045 
L 42.482263 148.641069 
L 59.435463 148.641069 
L 63.673763 152.417045 
L 67.912063 153.675703 
L 76.388663 153.675703 
L 89.103564 157.451679 
L 106.056764 157.451679 
L 110.295064 149.899728 
L 139.963164 149.899728 
L 144.201464 152.417045 
L 152.678065 152.417045 
L 156.916365 153.457536 
L 161.154665 153.675703 
L 165.392965 153.675703 
L 169.631265 153.457536 
L 178.107865 151.376553 
L 182.346165 151.376553 
L 186.584465 144.865093 
L 190.822765 144.307927 
L 195.061065 141.089118 
L 199.299365 141.089118 
L 203.537665 139.830459 
L 212.014266 139.830459 
L 220.490866 137.313142 
L 233.205766 137.313142 
L 237.444066 131.721342 
L 241.682366 125.283723 
L 250.158966 125.283723 
L 254.397266 122.766406 
L 258.635566 122.766406 
L 262.873866 129.204025 
L 267.112167 131.721342 
L 271.350467 131.721342 
L 275.588767 129.204025 
L 279.827067 129.204025 
L 284.065367 122.766406 
L 288.303667 120.950582 
L 292.541967 109.622655 
L 296.780267 109.622655 
L 301.018567 97.593236 
L 305.256867 97.03607 
L 309.495167 95.220245 
L 313.733467 85.150977 
L 317.971767 85.006651 
L 322.210067 83.190826 
L 326.448368 81.932168 
L 334.924968 81.932168 
L 339.163268 69.902749 
L 343.401568 69.902749 
L 347.639868 57.87333 
L 351.878168 56.758998 
L 356.116468 56.758998 
L 360.354768 54.241681 
L 364.593068 54.241681 
L 373.069668 51.724364 
L 377.307968 51.724364 
L 381.546268 49.207047 
L 385.784569 49.207047 
L 390.022869 47.948388 
L 394.261169 47.948388 
L 398.499469 49.207047 
L 402.737769 49.207047 
L 406.976069 51.022871 
L 415.452669 51.022871 
L 419.690969 39.694945 
L 428.167569 39.694945 
L 432.405869 39.137778 
L 445.12077 39.137778 
L 449.35907 40.396437 
L 453.59737 45.431071 
L 457.83567 169.383761 
L 466.31227 186.568645 
L 470.55057 191.435458 
L 474.78887 192.694117 
L 499.19207 192.694117 
L 499.19207 192.694117 
" clip-path="url(#p53e3b8df87)" style="fill: none; stroke: #0072b2; stroke-width: 1.4; stroke-linecap: square"/>
   </g>
   <g id="text_15">
    <g id="patch_5">
     <path d="M 438.734998 172.953332 
L 482.41781 172.953332 
Q 483.91781 172.953332 483.91781 171.453332 
L 483.91781 147.358222 
Q 483.91781 145.858222 482.41781 145.858222 
L 438.734998 145.858222 
Q 437.234998 145.858222 437.234998 147.358222 
L 437.234998 171.453332 
Q 437.234998 172.953332 438.734998 172.953332 
z
" style="fill: #ffffff; opacity: 0.86; stroke: #c8c8c8; stroke-width: 0.4; stroke-linejoin: miter"/>
    </g>
    <text style="font-size: 6px; font-family: 'Arial', 'Helvetica', 'DejaVu Sans', sans-serif" transform="translate(451.74656 151.796347)">AAE (BPM)</text>
    <text style="font-size: 6px; font-family: 'Arial', 'Helvetica', 'DejaVu Sans', sans-serif" transform="translate(454.848748 157.99805)">FFT 32.99</text>
    <text style="font-size: 6px; font-family: 'Arial', 'Helvetica', 'DejaVu Sans', sans-serif" transform="translate(443.405623 164.129441)">HF-LMS 18.48</text>
    <text style="font-size: 6px; font-family: 'Arial', 'Helvetica', 'DejaVu Sans', sans-serif" transform="translate(438.734998 170.260832)">ACC-LMS 18.86</text>
   </g>
   <g id="line2d_94">
    <path d="M -1 156.359157 
L 0.099262 157.451679 
L 17.052462 157.451679 
L 25.529063 154.934362 
L 29.767363 152.417045 
L 42.482263 148.641069 
L 59.435463 148.641069 
L 63.673763 152.417045 
L 67.912063 153.675703 
L 76.388663 153.675703 
L 89.103564 157.451679 
L 106.056764 157.451679 
L 110.295064 149.899728 
L 139.963164 149.899728 
L 144.201464 152.417045 
L 152.678065 152.417045 
L 156.916365 153.457536 
L 161.154665 153.675703 
L 165.392965 153.675703 
L 169.631265 153.457536 
L 178.107865 151.376553 
L 182.346165 151.376553 
L 186.584465 134.795825 
L 190.822765 133.537167 
L 199.299365 125.985216 
L 203.537665 119.691923 
L 207.775966 118.433265 
L 212.014266 114.657289 
L 216.252566 109.622655 
L 224.729166 85.563817 
L 228.967466 80.673509 
L 233.205766 79.559177 
L 237.444066 79.559177 
L 241.682366 77.4547 
L 245.920666 73.534398 
L 250.158966 68.64409 
L 254.397266 67.529758 
L 258.635566 65.425281 
L 267.112167 65.425281 
L 271.350467 53.395862 
L 275.588767 53.395862 
L 279.827067 49.207047 
L 284.065367 49.207047 
L 292.541967 46.68973 
L 296.780267 46.68973 
L 301.018567 42.913754 
L 309.495167 18.999242 
L 313.733467 15.223267 
L 326.448368 15.223267 
L 330.686668 6.969823 
L 339.163268 6.969823 
L 343.401568 8.372808 
L 347.639868 15.223267 
L 351.878168 17.740584 
L 360.354768 17.740584 
L 364.593068 20.402227 
L 368.831368 20.402227 
L 373.069668 24.033876 
L 377.307968 32.431646 
L 381.546268 36.063295 
L 385.784569 45.431071 
L 390.022869 48.092714 
L 394.261169 48.092714 
L 398.499469 57.46049 
L 402.737769 69.489909 
L 406.976069 69.489909 
L 411.214369 69.902749 
L 415.452669 69.902749 
L 419.690969 79.414851 
L 423.929269 81.932168 
L 436.644169 81.932168 
L 440.882469 90.742777 
L 449.35907 114.801615 
L 453.59737 114.801615 
L 457.83567 169.383761 
L 466.31227 186.568645 
L 470.55057 191.435458 
L 474.78887 192.694117 
L 499.19207 192.694117 
L 499.19207 192.694117 
" clip-path="url(#p53e3b8df87)" style="fill: none; stroke: #d55e00; stroke-width: 1.5; stroke-linecap: square"/>
   </g>
   <g id="line2d_95">
    <path d="M -1 146.433233 
L 0.099262 146.878947 
L 4.337562 146.878947 
L 12.814162 150.315924 
L 17.052462 150.315924 
L 21.290762 152.034412 
L 25.529063 150.315924 
L 42.482263 150.315924 
L 46.720563 152.034412 
L 84.865263 152.034412 
L 93.341864 155.471389 
L 131.486564 155.471389 
L 139.963164 152.034412 
L 144.201464 153.752901 
L 165.392965 153.752901 
L 169.631265 152.034412 
L 173.869565 152.034412 
L 178.107865 150.315924 
L 182.346165 150.315924 
L 195.061065 145.160459 
L 199.299365 140.004993 
L 203.537665 138.286505 
L 207.775966 122.820109 
L 212.014266 115.946156 
L 216.252566 110.79069 
L 220.490866 109.072202 
L 228.967466 102.198248 
L 233.205766 102.198248 
L 241.682366 95.324294 
L 245.920666 90.168829 
L 250.158966 83.294876 
L 262.873866 72.983945 
L 271.350467 69.546968 
L 275.588767 66.109991 
L 279.827067 66.109991 
L 296.780267 59.236038 
L 301.018567 55.799061 
L 305.256867 54.080572 
L 309.495167 54.080572 
L 313.733467 48.925107 
L 330.686668 42.051153 
L 334.924968 42.051153 
L 339.163268 40.332665 
L 343.401568 40.332665 
L 351.878168 36.895688 
L 356.116468 38.614177 
L 360.354768 38.614177 
L 364.593068 36.895688 
L 373.069668 36.895688 
L 377.307968 35.1772 
L 394.261169 35.1772 
L 402.737769 31.740223 
L 411.214369 31.740223 
L 415.452669 30.021734 
L 428.167569 30.021734 
L 432.405869 31.740223 
L 449.35907 31.740223 
L 453.59737 36.895688 
L 457.83567 38.614177 
L 462.07397 42.051153 
L 466.31227 42.051153 
L 470.55057 48.925107 
L 479.02717 55.799061 
L 483.26547 57.517549 
L 487.50377 57.517549 
L 491.74207 60.954526 
L 495.98037 60.954526 
L 499.19207 63.558999 
L 499.19207 63.558999 
" clip-path="url(#p53e3b8df87)" style="fill: none; stroke: #222222; stroke-width: 1.6; stroke-linecap: square"/>
   </g>
   <g id="legend_1">
    <g id="line2d_96">
     <path d="M 167.830723 6.034688 
L 174.430723 6.034688 
L 181.030723 6.034688 
" style="fill: none; stroke: #222222; stroke-width: 1.6; stroke-linecap: square"/>
    </g>
    <g id="text_16">
     <text style="font-size: 6px; font-family: 'Arial', 'Helvetica', 'DejaVu Sans', sans-serif; text-anchor: start" x="185.830723" y="8.134688" transform="rotate(-0 185.830723 8.134688)">Reference</text>
    </g>
    <g id="line2d_97">
     <path d="M 220.711348 6.034688 
L 227.311348 6.034688 
L 233.911348 6.034688 
" style="fill: none; stroke-dasharray: 2.4,1.68; stroke-dashoffset: 0; stroke: #7a7a7a; stroke-width: 1.2"/>
    </g>
    <g id="text_17">
     <text style="font-size: 6px; font-family: 'Arial', 'Helvetica', 'DejaVu Sans', sans-serif; text-anchor: start" x="238.711348" y="8.134688" transform="rotate(-0 238.711348 8.134688)">FFT</text>
    </g>
    <g id="line2d_98">
     <path d="M 256.90541 6.034688 
L 263.50541 6.034688 
L 270.10541 6.034688 
" style="fill: none; stroke: #d55e00; stroke-width: 1.5; stroke-linecap: square"/>
    </g>
    <g id="text_18">
     <text style="font-size: 6px; font-family: 'Arial', 'Helvetica', 'DejaVu Sans', sans-serif; text-anchor: start" x="274.90541" y="8.134688" transform="rotate(-0 274.90541 8.134688)">HF-LMS</text>
    </g>
    <g id="line2d_99">
     <path d="M 304.437598 6.034688 
L 311.037598 6.034688 
L 317.637598 6.034688 
" style="fill: none; stroke: #0072b2; stroke-width: 1.4; stroke-linecap: square"/>
    </g>
    <g id="text_19">
     <text style="font-size: 6px; font-family: 'Arial', 'Helvetica', 'DejaVu Sans', sans-serif; text-anchor: start" x="322.437598" y="8.134688" transform="rotate(-0 322.437598 8.134688)">ACC-LMS</text>
    </g>
   </g>
  </g>
 </g>
 <defs>
  <clipPath id="p53e3b8df87">
   <rect x="25.529063" y="17.992316" width="466.213008" height="163.2564"/>
  </clipPath>
 </defs>
</svg>
